<svg width="520" height="411" viewBox="0 0 520 411" fill="none" xmlns="http://www.w3.org/2000/svg">
<path fill-rule="evenodd" clip-rule="evenodd" d="M249.916 0.235129C219.747 3.41058 187.414 12.4315 126.651 34.6263C75.8953 53.1642 47.3744 65.7931 32.6592 76.2428C14.8446 88.8934 6.35324 102.864 1.63348 127.29C0.623323 132.518 0.383771 144.51 0.112431 203.652C-0.224805 276.949 0.044984 285.529 3.06228 297.326C5.61985 307.324 9.37442 313.982 16.4587 321.076C26.7564 331.39 34.4377 335.723 70.8321 351.753C107.963 368.105 155.006 386.681 181.694 395.528C216.121 406.941 247.324 411.982 271.163 409.985C300.285 407.545 328.625 399.851 376.883 381.284C410.311 368.423 457.015 348.654 477.284 338.787C500.53 327.471 511.418 315.834 516.18 297.217C519.2 285.407 519.443 277.663 519.104 204.04C518.83 144.547 518.591 132.519 517.58 127.29C513.679 107.099 507.412 94.5854 495.734 83.6605C481.432 70.2819 459.539 59.5825 404.58 39.1158C344.611 16.783 313.341 7.16437 285.206 2.39655C274.424 0.570042 256.922 -0.502139 249.916 0.235129ZM297.207 39.536L311.161 44.3674L311.36 105.016C311.469 138.373 311.644 165.704 311.748 165.752C311.851 165.8 319.088 166.411 327.829 167.108L343.722 168.378L343.932 183.689L344.142 199.001H313.504H282.865V116.824C282.865 71.6261 282.952 34.6596 283.058 34.6759C283.165 34.6914 289.532 36.8792 297.207 39.536ZM246.971 38.5413C259.21 44.5666 269.117 62.9006 273.143 86.9762C277.715 114.309 276.389 142.648 269.536 164.086C262.222 186.966 249.984 199.48 234.039 200.384C213.579 201.543 197.559 182.975 191.34 150.896C187.078 128.91 187.603 100.5 192.635 80.7742C194.272 74.3574 198.759 63.2852 201.879 57.9607C213.065 38.8739 231.511 30.9306 246.971 38.5413ZM383.584 69.4702C399.183 74.9791 412.556 79.726 413.301 80.0191C414.506 80.4928 414.658 81.8037 414.658 91.7107C414.658 97.8476 414.397 102.867 414.077 102.866C413.757 102.864 405.995 100.822 396.827 98.3275L380.159 93.793L379.944 105.029C379.826 111.208 379.889 116.424 380.084 116.619C380.279 116.814 386.481 118.266 393.866 119.844L407.293 122.715L407.505 135.528L407.717 148.342L395.101 146.569C388.162 145.593 381.874 144.781 381.128 144.764C379.889 144.735 379.772 145.863 379.772 157.865V170.996L383.066 171.417C384.878 171.648 391.594 172.208 397.99 172.661C404.386 173.113 410.752 173.658 412.139 173.873L414.658 174.263V186.632V199.001H384.423H354.188V129.228C354.188 90.8525 354.421 59.4546 354.705 59.4546C354.99 59.4546 367.985 63.962 383.584 69.4702ZM157.742 67.4188C168.817 73.0898 176.778 87.1793 181.056 108.683C182.127 114.064 182.443 119.387 182.438 131.941C182.429 153.762 180.233 166.097 174.019 179.232C167.718 192.55 158.887 199.422 146.91 200.327C125.161 201.972 109.501 184.336 105.312 153.479C103.884 142.956 104.732 117.961 106.854 108.054C111.806 84.9358 121.57 71.4145 136.989 66.3234C143.367 64.2186 152.426 64.6961 157.742 67.4188ZM225.583 69.2926C221.574 73.4503 218.795 79.8098 216.497 90.0772C214.807 97.6236 214.199 120.813 215.402 131.779C217.145 147.667 221.378 160.432 226.15 164.186C227.331 165.115 229.257 165.665 231.333 165.665C237.452 165.665 241.876 159.219 244.634 146.283C245.788 140.876 246.039 136.076 246.034 119.537C246.029 106.799 245.664 97.2406 245.039 93.5659C241.919 75.1947 238.094 67.2072 231.813 65.9513C229.527 65.4939 228.941 65.8079 225.583 69.2926ZM465.085 98.2012C473.529 102.564 480.037 110.682 483.338 120.966C487.479 133.868 485.569 150.383 479.167 157.017C477.585 158.656 475.682 160.326 474.938 160.728C473.703 161.395 474.127 163.082 479.784 180.018C483.192 190.225 485.982 198.846 485.982 199.177C485.982 199.506 481.511 199.776 476.046 199.776H466.111L460.566 181.84C457.516 171.975 454.882 163.766 454.713 163.598C454.544 163.429 452.615 163.078 450.425 162.82L446.444 162.347V181.062V199.776H434.427H422.411V141.691V83.6062L442.796 90.4114C454.008 94.1551 464.037 97.66 465.085 98.2012ZM138.12 92.3301C134.957 94.9916 132.122 101.691 130.052 111.397C127.761 122.143 127.507 145.922 129.596 154.282C133.263 168.96 140.028 175.589 147.087 171.419C153.441 167.666 156.61 155.531 156.689 134.654C156.758 116.496 153.332 100.094 148.12 93.6357C145.173 89.9819 141.483 89.5005 138.12 92.3301ZM83.0517 94.5443C88.2257 96.9135 92.3237 101.057 94.9193 106.544C96.9923 110.925 99.0925 119.378 99.1157 123.435L99.1289 125.782L88.6676 127.743C77.1078 129.911 78.1133 130.184 76.9977 124.576C75.6767 117.942 71.3972 112.943 67.045 112.953C55.8425 112.976 47.2426 139.534 51.4003 161.265C53.4198 171.822 57.5744 177.28 64.0121 177.835C71.3693 178.469 75.9116 172.543 77.6086 160.095L78.5071 153.509L88.6242 152.212C94.1882 151.498 99.2274 150.919 99.822 150.925C100.697 150.933 100.805 152.098 100.392 157.058C98.7793 176.393 90.4902 191.647 78.3466 197.625C73.5431 199.99 72.6594 200.162 65.4216 200.137C54.6145 200.099 50.2265 198.31 42.8453 190.934C33.8601 181.955 29.7675 171.623 28.8442 155.586C27.5875 133.751 34.8075 112.112 46.9534 101.311C51.0995 97.6236 58.3722 93.8969 63.5509 92.8046C69.3203 91.5882 78.3559 92.3945 83.0517 94.5443ZM446.444 127.191V139.884L453.428 141.162C459.821 142.332 460.613 142.336 462.792 141.209C468.723 138.142 468.888 126.141 463.079 120.332C461.315 118.568 458.977 117.452 454.429 116.206C451.001 115.267 447.801 114.498 447.32 114.498C446.704 114.498 446.444 118.274 446.444 127.191ZM249.683 210.682C265.069 215.865 273.562 230.532 273.562 251.924V259.172L260.964 257.812C254.035 257.064 247.978 256.433 247.504 256.411C247.031 256.388 246.442 254.665 246.195 252.581C245.229 244.426 241.471 240.099 235.35 240.092C233.008 240.09 231.761 240.698 229.191 243.095C226.151 245.931 225.951 246.388 225.645 251.196C225.041 260.671 228 264.293 246.77 277.061C260.087 286.119 264.81 290.112 269.423 296.208C277.239 306.536 280.683 317.387 280.647 331.57C280.625 340.556 279.41 346.275 276.075 353.097C269.609 366.327 255.041 373.984 240.315 371.895C217.366 368.641 203.852 350.675 201.716 320.58C201.311 314.87 201.413 313.76 202.314 314.062C202.912 314.263 207.762 315.344 213.092 316.466C218.421 317.587 224.041 318.827 225.578 319.222L228.374 319.941L228.877 325.348C229.534 332.423 231.97 338.859 234.736 340.828C237.597 342.866 243.299 344.343 245.841 343.705C252.816 341.955 253.884 327.353 247.911 315.398C244.803 309.18 239.467 303.856 227.046 294.579C214.552 285.247 207.957 278.597 204.597 271.942C193.254 249.471 203.971 218.361 225.718 210.63C231.61 208.534 243.385 208.56 249.683 210.682ZM63.0539 240.472C65.5898 257.311 67.897 270.83 68.1815 270.513C68.466 270.196 71.2709 256.419 74.4145 239.896L80.1313 209.854H93.1184H106.106V269.161C106.106 301.78 105.833 328.469 105.499 328.469C105.165 328.469 100.892 327.13 96.0023 325.492L87.1125 322.517L86.7124 288.086C86.493 269.15 86.2349 254.005 86.1403 254.432C86.0449 254.858 83.116 269.161 79.632 286.217C76.148 303.273 73.2268 317.324 73.1408 317.443C72.9206 317.748 61.6499 313.687 60.9685 313.058C60.6599 312.773 58.4598 298.942 56.0797 282.323C53.6989 265.704 51.4452 251.408 51.0716 250.555C50.6677 249.632 50.3715 261.297 50.3405 279.398L50.2878 309.792L42.1476 306.987L34.0074 304.183V257.019V209.854H46.2262H58.4443L63.0539 240.472ZM181.802 282.341C189.114 321.995 195.303 355.689 195.555 357.215L196.012 359.99L182.229 355.313L168.445 350.637L166.058 336.42C164.744 328.6 163.5 322.033 163.294 321.826C163.088 321.62 157.597 320.02 151.094 318.27C142.335 315.914 139.121 315.33 138.697 316.016C138.382 316.526 137.123 321.629 135.9 327.357C134.677 333.085 133.316 337.772 132.877 337.772C132.195 337.772 110.69 330.828 110.193 330.447C110.026 330.319 139.882 212.893 140.612 210.806C140.879 210.045 144.124 209.867 154.733 210.03L168.507 210.242L181.802 282.341ZM344.11 224.911V239.966L341.978 240.368C340.805 240.589 337.491 240.993 334.613 241.267L329.38 241.763V299.74V357.716L316.394 362.205C309.253 364.674 302.973 366.852 302.44 367.045C301.67 367.325 301.471 354.711 301.471 305.613V243.83L292.168 244.385L282.865 244.94V227.397V209.854H313.487H344.11V224.911ZM414.658 222.646C414.658 235.388 414.651 235.438 412.914 235.46C411.955 235.472 404.716 235.985 396.827 236.601C388.939 237.216 381.874 237.729 381.128 237.742C379.896 237.761 379.772 238.861 379.772 249.78C379.772 258.882 380.007 261.794 380.741 261.787C381.274 261.783 387.271 261.085 394.067 260.237C400.863 259.389 406.716 258.695 407.072 258.695C407.428 258.695 407.624 264.365 407.506 271.293L407.293 283.891L394.114 286.733C386.865 288.297 380.673 289.605 380.353 289.641C379.452 289.741 379.638 315.289 380.54 315.289C380.962 315.289 388.41 313.196 397.089 310.638C405.768 308.079 413.281 305.986 413.785 305.986C414.457 305.986 414.643 308.929 414.485 317.01L414.271 328.034L385.586 338.331C369.81 343.994 356.291 348.824 355.545 349.066C354.26 349.482 354.188 345.83 354.188 279.679V209.854H384.423H414.658V222.646ZM470.934 212.324C482.814 218.592 488.108 235.473 483.655 252.884C481.975 259.452 479.66 263.977 475.944 267.954C474.643 269.348 473.578 270.735 473.578 271.038C473.578 271.339 476.209 278.688 479.425 287.366C482.641 296.045 485.127 303.525 484.948 303.989C484.606 304.881 466.096 311.183 465.547 310.594C465.37 310.405 462.859 303.273 459.966 294.745C457.074 286.217 454.611 279.113 454.494 278.958C454.376 278.804 452.517 279.1 450.362 279.617L446.444 280.557V299.022V317.486L435.396 321.153C429.321 323.17 423.913 324.981 423.38 325.177C422.61 325.46 422.411 313.628 422.411 267.64V209.748L444.699 209.995L466.988 210.242L470.934 212.324ZM449.739 232.129L446.444 232.426V245.26V258.093L448.963 257.646C450.349 257.4 453.346 256.964 455.623 256.675C460.149 256.102 463.536 253.845 465.465 250.114C467.178 246.802 466.945 238.725 465.047 235.612C462.679 231.73 460.267 231.181 449.739 232.129ZM151.586 250.578C149.069 261.145 143.319 288.296 143.319 289.607C143.319 290.683 144.92 291.252 151.653 292.568C156.237 293.463 160.077 294.112 160.188 294.011C160.548 293.679 154.115 248.274 153.484 246.701C153.015 245.529 152.574 246.431 151.586 250.578Z" fill="#4C5463"/>
</svg>
