<svg width="520" height="343" viewBox="0 0 520 343" fill="none" xmlns="http://www.w3.org/2000/svg">
<path fill-rule="evenodd" clip-rule="evenodd" d="M311.5 0.291821C272.001 2.93771 234.043 10.4155 196.281 22.9914C169.21 32.0064 145.851 42.3269 122.268 55.6923L113.097 60.8895V65.9787C113.097 68.7781 113.179 71.0685 113.28 71.0685C113.381 71.0685 117.159 69.2989 121.676 67.1361C173.954 42.1053 230.929 25.953 287.216 20.2065C303.543 18.5397 311.427 18.1662 330.1 18.176C350.358 18.1869 360.323 18.8001 376.084 21.0058C425.217 27.8828 461.228 46.387 479.281 74.0347C485.295 83.2445 489.802 95.1301 491.574 106.453C492.884 114.828 492.453 127.047 490.552 135.395C485.051 159.556 469.439 181.304 446.591 196.633L441.185 200.26V214.457C441.185 222.657 441.384 228.654 441.656 228.654C442.538 228.654 450.732 224.985 455.135 222.617C480.644 208.903 502.003 184.687 512.243 157.87C521.013 134.902 521.546 107.599 513.668 84.7604C504.172 57.2304 481.367 34.799 447.778 19.9518C425.696 10.1908 399.428 3.94678 367.042 0.760445C359.85 0.053117 320.074 -0.282722 311.5 0.291821ZM395.949 79.9941C395.807 80.3656 395.756 108.91 395.837 143.425C395.977 202.933 396.034 206.326 396.942 209.021C400.16 218.569 406.081 224.028 416.091 226.674C418.061 227.195 420.445 227.621 421.389 227.621H423.105L422.974 153.607L422.843 79.5936L409.526 79.4557C398.932 79.3462 396.156 79.4562 395.949 79.9941ZM449.171 79.9166C441.498 81.6454 438.524 91.8807 443.958 97.8555C447.746 102.02 454.657 102.349 458.846 98.5644C461.227 96.413 462.215 94.6862 462.661 91.8972C463.439 87.0353 459.872 81.5648 454.976 80.1108C452.083 79.2516 452.117 79.2532 449.171 79.9166ZM456.209 83.0936C458.982 84.9624 460.302 87.3324 460.302 90.4438C460.302 98.6595 449.989 102.119 444.999 95.5765C443.725 93.9061 443.51 93.1579 443.51 90.3927C443.51 86.7785 444.39 85.1164 447.38 83.0812C449.744 81.4723 453.812 81.478 456.209 83.0936ZM75.615 83.5994C75.4749 83.9652 75.4228 89.8398 75.4987 96.6542L75.6377 109.044H89.0712H102.505V96.1272V83.2104L89.1875 83.0724C78.7073 82.9639 75.816 83.076 75.615 83.5994ZM447.213 83.8133C447.023 84.0024 446.868 87.025 446.868 90.5301V96.9022H448.419C449.934 96.9022 449.969 96.8449 449.969 94.3189C449.969 92.898 450.203 91.7355 450.49 91.7355C450.777 91.7355 451.727 92.898 452.601 94.3189C453.921 96.4641 454.446 96.9022 455.696 96.9022C456.525 96.9022 457.202 96.7483 457.202 96.5602C457.202 96.3721 456.599 95.1895 455.862 93.9319L454.523 91.6461L455.604 90.495C457.102 88.9005 457.019 86.3388 455.417 84.7371C454.335 83.6557 453.663 83.4687 450.853 83.4687C449.041 83.4687 447.402 83.6237 447.213 83.8133ZM452.768 86.3657C453.217 86.5383 453.585 87.211 453.585 87.8604C453.585 89.07 452.715 89.6688 450.96 89.6688C450.172 89.6688 449.969 89.2989 449.969 87.8604C449.969 85.9952 450.736 85.586 452.768 86.3657ZM232.675 94.9911C232.533 95.361 232.485 120.297 232.568 150.404C232.71 201.883 232.776 205.315 233.667 207.987C235.421 213.248 238.107 217.663 241.446 220.776C248.198 227.071 253.238 228.593 268.745 229.026L279.466 229.324V217.93V206.536L272.362 206.358C264.329 206.156 262.533 205.533 260.625 202.286C259.609 200.555 259.569 199.574 259.416 172.983L259.258 145.47H269.362H279.466V134.361V123.253H269.391H259.316V108.786V94.3189H246.124C235.771 94.3189 232.877 94.4635 232.675 94.9911ZM50.8353 103.147C28.5428 124.245 14.1483 145.545 6.20954 169.18C2.06065 181.532 0.441905 190.994 0.0822996 205C-0.230289 217.166 0.297236 223.581 2.53702 234.861C4.60579 245.281 7.21293 252.889 11.9188 262.238C17.797 273.916 24.0679 282.294 34.1916 291.995C58.7016 315.482 96.9712 331.618 144.355 338.447C197.792 346.147 262.431 342.302 323.642 327.78C361.928 318.697 394.191 307.465 422.456 293.377L431.368 288.935V269.128C431.368 258.234 431.261 249.321 431.13 249.321C430.998 249.321 427.917 250.989 424.284 253.027C384.418 275.384 318.52 295.677 261.899 303.034C239.639 305.927 222.515 306.917 194.731 306.92C166.536 306.923 153.699 306.055 133.247 302.764C101.652 297.68 75.9167 288.071 57.4001 274.444C50.4798 269.351 41.0572 259.884 36.5099 253.455C16.1416 224.657 15.4079 183.82 34.5616 145.089C39.5795 134.943 46.1888 124.622 52.6059 116.912L56.808 111.864L56.6644 104.815L56.5207 97.7656L50.8353 103.147ZM327.258 122.034C315.644 124.406 308.521 127.833 301.768 134.299C293.702 142.021 288.353 153.239 286.655 165.991C285.784 172.534 286.338 187.361 287.665 193.004C291.613 209.795 300.367 220.932 314.057 226.577C328.691 232.612 348.964 231.986 362.544 225.08C365.961 223.343 371.635 219.331 375.225 216.115L377.723 213.876L369.37 205.923C363.314 200.158 360.834 198.105 360.355 198.458C359.991 198.726 358.324 200.054 356.651 201.409C351.525 205.558 347.156 207.199 339.65 207.794C326.162 208.861 316.074 202.166 313.626 190.524C313.309 189.018 313.05 187.1 313.05 186.262V184.737H346.965H380.881L380.592 175.308C380.269 164.794 379.436 159.269 377.16 152.556C371.665 136.351 360.278 125.654 345.096 122.435C342 121.779 329.845 121.505 327.258 122.034ZM75.4889 166.007L75.6377 208.762L76.8405 212.121C80.4619 222.233 88.1552 228.015 100.567 229.952L102.763 230.295V176.774V123.253H89.0516H75.3401L75.4889 166.007ZM126.013 176.186V229.171H139.447H152.881V187.32V145.47H165.946C178.472 145.47 179.107 145.518 181.305 146.632C182.664 147.32 184.025 148.532 184.644 149.603C185.665 151.368 185.693 152.34 185.831 190.291L185.973 229.171H199.394H212.815L212.806 189.775C212.796 145.609 212.846 146.315 209.155 138.827C205.586 131.587 199.73 126.851 191.373 124.446C188.624 123.655 184.746 123.534 157.143 123.377L126.013 123.2V176.186ZM339.549 144.688C344.726 146.036 347.97 148.726 350.542 153.802C352.082 156.841 353.35 161.528 353.35 164.178V166.137H333.2H313.05V164.437C313.05 162.019 314.378 157.236 315.843 154.374C319.887 146.478 330.217 142.258 339.549 144.688Z" fill="black"/>
</svg>
