<svg width="520" height="344" viewBox="0 0 520 344" fill="none" xmlns="http://www.w3.org/2000/svg">
<path fill-rule="evenodd" clip-rule="evenodd" d="M195 22.939V45.877L190.25 46.513C154.047 51.353 124.561 60.937 90.4814 78.942C62.0044 93.986 27.0874 118.263 6.13837 137.584L0.776367 142.529L3.49637 149.014C21.4064 191.722 50.1074 230.575 84.5004 258.671C97.8274 269.558 121.425 283.318 138.902 290.392C152.176 295.765 174.264 301.234 188.25 302.612L195 303.276V323.638V344H357.5H470C497.615 344 520 321.614 520 294V172V50C520 22.3858 497.615 0 470 0H357.5H195V22.939ZM244.5 49.533C285.792 56.422 324.03 74.948 361.739 106.336C371.591 114.536 385.94 128.599 393.577 137.539L398.23 142.985L390.212 151.742C354.808 190.409 310.176 223.291 273.213 237.937C252.443 246.167 236.687 249.294 217 249.093C209.575 249.017 201.7 248.621 199.5 248.212L195.5 247.469L195.217 235.615C194.954 224.581 195.058 223.81 196.717 224.477C201.958 226.581 215.14 228.117 223.5 227.598C253.906 225.71 286.344 207.08 320.516 171.878C337.101 154.794 344.349 145.676 343.492 142.974C343.124 141.816 336.901 134.895 329.662 127.595C301.617 99.313 272.419 82.154 239.008 74.323C231.01 72.448 224.498 71.724 211.75 71.292L195 70.723V58.922V47.121L198.75 46.689C206.655 45.777 231.095 47.297 244.5 49.533ZM194.776 87.165L194.5 102.33L183.88 104.117C155.102 108.96 121.799 125.339 99.0154 145.857L93.5314 150.797L94.8034 155.552C96.8504 163.206 106.499 182.557 113.548 193.145C132.067 220.964 160.18 240.913 189.415 246.982L195 248.142V262.071C195 271.066 194.631 276 193.958 276C193.385 276 189.447 275.3 185.208 274.445C145.214 266.378 111.729 243.505 85.0064 206C73.7224 190.162 63.1184 170.348 56.5174 152.765L54.7404 148.03L57.5574 144.265C62.0294 138.288 76.8494 123.317 84.5924 116.956C115.101 91.892 156.686 74.739 193.276 72.127C194.916 72.01 195.031 73.161 194.776 87.165ZM237.5 105.498C249.347 108.601 262.712 114.72 273.414 121.942C281.455 127.368 297 141.666 297 143.635C297 144.593 255.727 180 254.611 180C254.397 180 250.94 174.712 246.929 168.25C230.351 141.54 222.578 134.901 202.75 130.514L195 128.799V115.96V103.121L198.75 102.659C208.318 101.48 227.536 102.888 237.5 105.498ZM192.75 129.63L195 130.233V176.684V223.135L192.75 222.438C188.517 221.127 180.502 216.763 174.453 212.475C159.691 202.011 145.005 181.543 137.925 161.563L136.131 156.5L139.315 153.15C143.469 148.781 152.366 141.907 158.569 138.273C165.622 134.141 171.493 131.954 179.5 130.474C187.751 128.949 189.737 128.823 192.75 129.63ZM423.467 183.946C423.789 184.467 431.803 189.265 441.276 194.609C464.301 207.598 474.637 213.784 477.656 216.38L480.162 218.536L470.331 225.648C442.179 246.012 393.14 267.8 342.176 282.586C292.088 297.117 239.236 305.311 207.423 303.476L195 302.759V290.13V277.5L216.75 277.459C240.714 277.415 253.158 275.97 272.5 270.988C317.771 259.328 360.78 234.758 411.5 191.581C417 186.899 421.811 183.053 422.191 183.034C422.571 183.015 423.145 183.426 423.467 183.946Z" fill="black"/>
</svg>
