<?xml version="1.0" standalone="no"?>
<!DOCTYPE svg PUBLIC "-//W3C//DTD SVG 20010904//EN"
 "http://www.w3.org/TR/2001/REC-SVG-20010904/DTD/svg10.dtd">
<svg version="1.0" xmlns="http://www.w3.org/2000/svg"
 width="512.000000pt" height="512.000000pt" viewBox="0 0 512.000000 512.000000"
 preserveAspectRatio="xMidYMid meet">
<metadata>
Created by potrace 1.14, written by Peter Selinger 2001-2017
</metadata>
<g transform="translate(0.000000,512.000000) scale(0.100000,-0.100000)"
fill="#000000" stroke="none">
<path d="M1650 4509 c-354 -21 -673 -163 -921 -409 -154 -154 -250 -298 -330
-497 -27 -68 -66 -208 -74 -263 -2 -14 -10 -56 -18 -95 -9 -38 -18 -83 -20
-100 -3 -16 -13 -68 -22 -115 -9 -47 -19 -96 -22 -110 -2 -14 -13 -68 -23
-120 -11 -52 -42 -214 -70 -360 -28 -146 -55 -283 -60 -305 -5 -22 -12 -56
-15 -75 -3 -19 -20 -105 -37 -190 -37 -182 -45 -357 -21 -468 8 -37 17 -77 19
-90 5 -24 35 -104 62 -162 32 -71 123 -197 189 -264 153 -153 352 -250 578
-281 45 -6 197 -7 235 0 14 2 43 6 65 10 57 9 209 62 264 92 141 77 196 125
411 362 47 52 90 99 95 105 6 6 44 49 85 95 41 47 84 94 95 106 11 11 54 59
96 105 42 47 94 104 115 128 l39 42 195 3 195 2 44 -50 c25 -27 50 -55 55 -61
6 -6 36 -40 67 -75 31 -35 67 -75 80 -90 13 -14 58 -63 99 -109 41 -46 84 -93
95 -104 11 -12 56 -62 100 -111 44 -50 105 -116 135 -148 58 -62 189 -167 207
-167 6 0 13 -4 15 -9 2 -4 34 -23 73 -40 403 -186 861 -88 1160 250 107 120
192 303 220 474 15 90 13 286 -3 355 -9 37 -29 138 -67 340 -3 14 -7 36 -10
50 -2 14 -7 36 -9 50 -3 14 -23 118 -45 232 -22 114 -43 220 -46 235 -3 16 -7
39 -10 53 -21 105 -25 128 -29 150 -2 14 -18 95 -35 180 -17 85 -33 171 -36
190 -3 19 -8 42 -10 50 -2 8 -7 30 -10 49 -34 201 -160 477 -285 625 -86 102
-137 153 -238 237 -53 45 -177 121 -262 162 -138 66 -266 106 -435 134 -44 8
-1802 9 -1925 2z"/>
</g>
</svg>
